<?xml version="1.0" encoding="utf-8"?>
<svg width="16px" height="16px" viewBox="0 0 16 16" version="1.1" xmlns:xlink="http://www.w3.org/1999/xlink" xmlns="http://www.w3.org/2000/svg">
  <desc>Created with Lunacy</desc>
  <path d="M2.36771 0.788767L14.2112 12.6323C14.6469 13.0679 14.6469 13.7742 14.2112 14.2098L14.2098 14.2112C13.7742 14.6469 13.0679 14.6469 12.6323 14.2112L0.788767 2.36771C0.353143 1.93209 0.353143 1.2258 0.788767 0.790181L0.790181 0.788767C1.2258 0.353143 1.93209 0.353143 2.36771 0.788767Z" transform="translate(0.5 0.5)" id="Rectangle" fill="#4D4D4D" stroke="none" />
  <path d="M0.788767 12.6323L12.6323 0.788767C13.0679 0.353143 13.7742 0.353143 14.2098 0.788767L14.2112 0.790181C14.6469 1.2258 14.6469 1.93209 14.2112 2.36771L2.36771 14.2112C1.93209 14.6469 1.2258 14.6469 0.790181 14.2112L0.788767 14.2098C0.353143 13.7742 0.353143 13.0679 0.788767 12.6323Z" transform="translate(0.5 0.5)" id="Rectangle-Copy-2" fill="#4D4D4D" stroke="none" />
</svg>