<?xml version="1.0" encoding="utf-8"?>
<svg width="18px" height="15px" viewBox="0 0 18 15" version="1.1" xmlns:xlink="http://www.w3.org/1999/xlink" xmlns="http://www.w3.org/2000/svg">
  <desc>Created with Lunacy</desc>
  <g id="Group" transform="translate(0.5 0.5)">
    <path d="M0.999 0L16.001 0C16.5527 0 17 0.447268 17 0.999L17 1.001C17 1.55273 16.5527 2 16.001 2L0.999 2C0.447268 2 0 1.55273 0 1.001L0 0.999C0 0.447268 0.447268 0 0.999 0Z" id="Rectangle" fill="#4D4D4D" stroke="none" />
    <path d="M0.999 0L16.001 0C16.5527 0 17 0.447268 17 0.999L17 1.001C17 1.55273 16.5527 2 16.001 2L0.999 2C0.447268 2 0 1.55273 0 1.001L0 0.999C0 0.447268 0.447268 0 0.999 0Z" transform="translate(0 6)" id="Rectangle-Copy-2" fill="#4D4D4D" stroke="none" />
    <path d="M0.999 0L16.001 0C16.5527 0 17 0.447268 17 0.999L17 1.001C17 1.55273 16.5527 2 16.001 2L0.999 2C0.447268 2 0 1.55273 0 1.001L0 0.999C0 0.447268 0.447268 0 0.999 0Z" transform="translate(0 12)" id="Rectangle-Copy-3" fill="#4D4D4D" stroke="none" />
  </g>
</svg>